<mxfile host="app.diagrams.net" modified="2022-05-14T08:07:34.084Z" agent="5.0 (X11; Linux x86_64) AppleWebKit/537.36 (KHTML, like Gecko) Chrome/101.0.4951.64 Safari/537.36" etag="uL_MAvV8lI356h0vzDVX" version="18.0.3" type="github">
  <diagram id="C5RBs43oDa-KdzZeNtuy" name="Page-1">
    <mxGraphModel dx="2048" dy="2259" grid="1" gridSize="10" guides="1" tooltips="1" connect="1" arrows="1" fold="1" page="1" pageScale="1" pageWidth="827" pageHeight="1169" math="0" shadow="0">
      <root>
        <mxCell id="WIyWlLk6GJQsqaUBKTNV-0" />
        <mxCell id="WIyWlLk6GJQsqaUBKTNV-1" parent="WIyWlLk6GJQsqaUBKTNV-0" />
        <mxCell id="Tousd2cAixEgL7wH7PzT-29" value="" style="edgeStyle=orthogonalEdgeStyle;rounded=0;orthogonalLoop=1;jettySize=auto;html=1;" edge="1" parent="WIyWlLk6GJQsqaUBKTNV-1" source="Tousd2cAixEgL7wH7PzT-6" target="Tousd2cAixEgL7wH7PzT-28">
          <mxGeometry relative="1" as="geometry" />
        </mxCell>
        <mxCell id="Tousd2cAixEgL7wH7PzT-6" value="LOOP START" style="strokeWidth=2;html=1;shape=mxgraph.flowchart.start_2;whiteSpace=wrap;fillColor=#f5f5f5;fontColor=#333333;strokeColor=#666666;" vertex="1" parent="WIyWlLk6GJQsqaUBKTNV-1">
          <mxGeometry x="10" width="100" height="80" as="geometry" />
        </mxCell>
        <mxCell id="Tousd2cAixEgL7wH7PzT-31" value="" style="edgeStyle=orthogonalEdgeStyle;rounded=0;orthogonalLoop=1;jettySize=auto;html=1;" edge="1" parent="WIyWlLk6GJQsqaUBKTNV-1" source="Tousd2cAixEgL7wH7PzT-28" target="Tousd2cAixEgL7wH7PzT-30">
          <mxGeometry relative="1" as="geometry" />
        </mxCell>
        <mxCell id="Tousd2cAixEgL7wH7PzT-28" value="STATUS CHECK" style="rounded=1;whiteSpace=wrap;html=1;strokeWidth=2;fillColor=#dae8fc;strokeColor=#6c8ebf;" vertex="1" parent="WIyWlLk6GJQsqaUBKTNV-1">
          <mxGeometry y="139" width="120" height="60" as="geometry" />
        </mxCell>
        <mxCell id="Tousd2cAixEgL7wH7PzT-35" value="" style="edgeStyle=orthogonalEdgeStyle;rounded=0;orthogonalLoop=1;jettySize=auto;html=1;" edge="1" parent="WIyWlLk6GJQsqaUBKTNV-1" source="Tousd2cAixEgL7wH7PzT-30" target="Tousd2cAixEgL7wH7PzT-34">
          <mxGeometry relative="1" as="geometry" />
        </mxCell>
        <mxCell id="Tousd2cAixEgL7wH7PzT-37" value="" style="edgeStyle=orthogonalEdgeStyle;rounded=0;orthogonalLoop=1;jettySize=auto;html=1;" edge="1" parent="WIyWlLk6GJQsqaUBKTNV-1" source="Tousd2cAixEgL7wH7PzT-30" target="Tousd2cAixEgL7wH7PzT-36">
          <mxGeometry relative="1" as="geometry" />
        </mxCell>
        <mxCell id="Tousd2cAixEgL7wH7PzT-30" value="ATTACKING?" style="rhombus;whiteSpace=wrap;html=1;rounded=1;strokeWidth=2;fillColor=#dae8fc;strokeColor=#6c8ebf;" vertex="1" parent="WIyWlLk6GJQsqaUBKTNV-1">
          <mxGeometry y="259" width="120" height="120" as="geometry" />
        </mxCell>
        <mxCell id="Tousd2cAixEgL7wH7PzT-56" value="" style="edgeStyle=orthogonalEdgeStyle;rounded=0;orthogonalLoop=1;jettySize=auto;html=1;" edge="1" parent="WIyWlLk6GJQsqaUBKTNV-1" source="Tousd2cAixEgL7wH7PzT-34" target="Tousd2cAixEgL7wH7PzT-55">
          <mxGeometry relative="1" as="geometry" />
        </mxCell>
        <mxCell id="Tousd2cAixEgL7wH7PzT-34" value="PG MODE" style="rounded=1;whiteSpace=wrap;html=1;strokeWidth=2;fillColor=#f8cecc;strokeColor=#b85450;" vertex="1" parent="WIyWlLk6GJQsqaUBKTNV-1">
          <mxGeometry y="469" width="120" height="60" as="geometry" />
        </mxCell>
        <mxCell id="Tousd2cAixEgL7wH7PzT-39" value="" style="edgeStyle=orthogonalEdgeStyle;rounded=0;orthogonalLoop=1;jettySize=auto;html=1;" edge="1" parent="WIyWlLk6GJQsqaUBKTNV-1" source="Tousd2cAixEgL7wH7PzT-36" target="Tousd2cAixEgL7wH7PzT-38">
          <mxGeometry relative="1" as="geometry" />
        </mxCell>
        <mxCell id="Tousd2cAixEgL7wH7PzT-41" value="" style="edgeStyle=orthogonalEdgeStyle;rounded=0;orthogonalLoop=1;jettySize=auto;html=1;" edge="1" parent="WIyWlLk6GJQsqaUBKTNV-1" source="Tousd2cAixEgL7wH7PzT-36" target="Tousd2cAixEgL7wH7PzT-40">
          <mxGeometry relative="1" as="geometry" />
        </mxCell>
        <mxCell id="Tousd2cAixEgL7wH7PzT-36" value="IS ON WP?" style="rhombus;whiteSpace=wrap;html=1;rounded=1;strokeWidth=2;fillColor=#dae8fc;strokeColor=#6c8ebf;" vertex="1" parent="WIyWlLk6GJQsqaUBKTNV-1">
          <mxGeometry x="190" y="259" width="120" height="120" as="geometry" />
        </mxCell>
        <mxCell id="Tousd2cAixEgL7wH7PzT-43" value="" style="edgeStyle=orthogonalEdgeStyle;rounded=0;orthogonalLoop=1;jettySize=auto;html=1;" edge="1" parent="WIyWlLk6GJQsqaUBKTNV-1" source="Tousd2cAixEgL7wH7PzT-38" target="Tousd2cAixEgL7wH7PzT-42">
          <mxGeometry relative="1" as="geometry" />
        </mxCell>
        <mxCell id="Tousd2cAixEgL7wH7PzT-45" value="" style="edgeStyle=orthogonalEdgeStyle;rounded=0;orthogonalLoop=1;jettySize=auto;html=1;" edge="1" parent="WIyWlLk6GJQsqaUBKTNV-1" source="Tousd2cAixEgL7wH7PzT-38" target="Tousd2cAixEgL7wH7PzT-44">
          <mxGeometry relative="1" as="geometry" />
        </mxCell>
        <mxCell id="Tousd2cAixEgL7wH7PzT-38" value="ARE THERE MONSTERS?" style="rhombus;whiteSpace=wrap;html=1;rounded=1;strokeWidth=2;fillColor=#ffe6cc;strokeColor=#d79b00;" vertex="1" parent="WIyWlLk6GJQsqaUBKTNV-1">
          <mxGeometry x="190" y="439" width="120" height="120" as="geometry" />
        </mxCell>
        <mxCell id="Tousd2cAixEgL7wH7PzT-64" style="edgeStyle=orthogonalEdgeStyle;rounded=0;orthogonalLoop=1;jettySize=auto;html=1;exitX=1;exitY=0.5;exitDx=0;exitDy=0;entryX=0.5;entryY=1;entryDx=0;entryDy=0;" edge="1" parent="WIyWlLk6GJQsqaUBKTNV-1" source="Tousd2cAixEgL7wH7PzT-40" target="Tousd2cAixEgL7wH7PzT-52">
          <mxGeometry relative="1" as="geometry" />
        </mxCell>
        <mxCell id="Tousd2cAixEgL7wH7PzT-40" value="GO TO WP" style="rounded=1;whiteSpace=wrap;html=1;strokeWidth=2;fillColor=#dae8fc;strokeColor=#6c8ebf;" vertex="1" parent="WIyWlLk6GJQsqaUBKTNV-1">
          <mxGeometry x="370" y="289" width="120" height="60" as="geometry" />
        </mxCell>
        <mxCell id="Tousd2cAixEgL7wH7PzT-59" value="" style="edgeStyle=orthogonalEdgeStyle;rounded=0;orthogonalLoop=1;jettySize=auto;html=1;" edge="1" parent="WIyWlLk6GJQsqaUBKTNV-1" source="Tousd2cAixEgL7wH7PzT-42" target="Tousd2cAixEgL7wH7PzT-58">
          <mxGeometry relative="1" as="geometry" />
        </mxCell>
        <mxCell id="Tousd2cAixEgL7wH7PzT-42" value="LOOT" style="whiteSpace=wrap;html=1;rounded=1;strokeWidth=2;fillColor=#d5e8d4;strokeColor=#82b366;" vertex="1" parent="WIyWlLk6GJQsqaUBKTNV-1">
          <mxGeometry x="370" y="469" width="120" height="60" as="geometry" />
        </mxCell>
        <mxCell id="Tousd2cAixEgL7wH7PzT-47" value="" style="edgeStyle=orthogonalEdgeStyle;rounded=0;orthogonalLoop=1;jettySize=auto;html=1;" edge="1" parent="WIyWlLk6GJQsqaUBKTNV-1" source="Tousd2cAixEgL7wH7PzT-44" target="Tousd2cAixEgL7wH7PzT-46">
          <mxGeometry relative="1" as="geometry" />
        </mxCell>
        <mxCell id="Tousd2cAixEgL7wH7PzT-44" value="ATTACK" style="whiteSpace=wrap;html=1;rounded=1;strokeWidth=2;fillColor=#ffe6cc;strokeColor=#d79b00;" vertex="1" parent="WIyWlLk6GJQsqaUBKTNV-1">
          <mxGeometry x="190" y="609" width="120" height="60" as="geometry" />
        </mxCell>
        <mxCell id="Tousd2cAixEgL7wH7PzT-49" value="" style="edgeStyle=orthogonalEdgeStyle;rounded=0;orthogonalLoop=1;jettySize=auto;html=1;" edge="1" parent="WIyWlLk6GJQsqaUBKTNV-1" source="Tousd2cAixEgL7wH7PzT-46" target="Tousd2cAixEgL7wH7PzT-48">
          <mxGeometry relative="1" as="geometry" />
        </mxCell>
        <mxCell id="Tousd2cAixEgL7wH7PzT-46" value="PG MODE" style="whiteSpace=wrap;html=1;rounded=1;strokeWidth=2;fillColor=#ffe6cc;strokeColor=#d79b00;" vertex="1" parent="WIyWlLk6GJQsqaUBKTNV-1">
          <mxGeometry x="190" y="720" width="120" height="60" as="geometry" />
        </mxCell>
        <mxCell id="Tousd2cAixEgL7wH7PzT-53" value="" style="edgeStyle=orthogonalEdgeStyle;rounded=0;orthogonalLoop=1;jettySize=auto;html=1;" edge="1" parent="WIyWlLk6GJQsqaUBKTNV-1" source="Tousd2cAixEgL7wH7PzT-48" target="Tousd2cAixEgL7wH7PzT-52">
          <mxGeometry relative="1" as="geometry" />
        </mxCell>
        <mxCell id="Tousd2cAixEgL7wH7PzT-48" value="STATUS CHECK" style="whiteSpace=wrap;html=1;rounded=1;strokeWidth=2;fillColor=#ffe6cc;strokeColor=#d79b00;" vertex="1" parent="WIyWlLk6GJQsqaUBKTNV-1">
          <mxGeometry x="190" y="830" width="120" height="60" as="geometry" />
        </mxCell>
        <mxCell id="Tousd2cAixEgL7wH7PzT-52" value="LOOP END" style="ellipse;whiteSpace=wrap;html=1;rounded=1;strokeWidth=2;fillColor=#f5f5f5;fontColor=#333333;strokeColor=#666666;" vertex="1" parent="WIyWlLk6GJQsqaUBKTNV-1">
          <mxGeometry x="200" y="1010" width="100" height="80" as="geometry" />
        </mxCell>
        <mxCell id="Tousd2cAixEgL7wH7PzT-57" style="edgeStyle=orthogonalEdgeStyle;rounded=0;orthogonalLoop=1;jettySize=auto;html=1;exitX=0.5;exitY=1;exitDx=0;exitDy=0;entryX=0;entryY=0.5;entryDx=0;entryDy=0;" edge="1" parent="WIyWlLk6GJQsqaUBKTNV-1" source="Tousd2cAixEgL7wH7PzT-55" target="Tousd2cAixEgL7wH7PzT-52">
          <mxGeometry relative="1" as="geometry" />
        </mxCell>
        <mxCell id="Tousd2cAixEgL7wH7PzT-55" value="STATUS CHECK" style="whiteSpace=wrap;html=1;rounded=1;strokeWidth=2;fillColor=#f8cecc;strokeColor=#b85450;" vertex="1" parent="WIyWlLk6GJQsqaUBKTNV-1">
          <mxGeometry y="609" width="120" height="60" as="geometry" />
        </mxCell>
        <mxCell id="Tousd2cAixEgL7wH7PzT-63" style="edgeStyle=orthogonalEdgeStyle;rounded=0;orthogonalLoop=1;jettySize=auto;html=1;exitX=0.5;exitY=1;exitDx=0;exitDy=0;entryX=1;entryY=0.5;entryDx=0;entryDy=0;" edge="1" parent="WIyWlLk6GJQsqaUBKTNV-1" source="Tousd2cAixEgL7wH7PzT-58" target="Tousd2cAixEgL7wH7PzT-52">
          <mxGeometry relative="1" as="geometry" />
        </mxCell>
        <mxCell id="Tousd2cAixEgL7wH7PzT-58" value="GO TO NEXT WP" style="whiteSpace=wrap;html=1;rounded=1;strokeWidth=2;fillColor=#d5e8d4;strokeColor=#82b366;" vertex="1" parent="WIyWlLk6GJQsqaUBKTNV-1">
          <mxGeometry x="370" y="609" width="120" height="60" as="geometry" />
        </mxCell>
        <mxCell id="Tousd2cAixEgL7wH7PzT-65" value="YES" style="text;html=1;strokeColor=none;fillColor=none;align=center;verticalAlign=middle;whiteSpace=wrap;rounded=0;" vertex="1" parent="WIyWlLk6GJQsqaUBKTNV-1">
          <mxGeometry y="399" width="60" height="30" as="geometry" />
        </mxCell>
        <mxCell id="Tousd2cAixEgL7wH7PzT-66" value="YES" style="text;html=1;strokeColor=none;fillColor=none;align=center;verticalAlign=middle;whiteSpace=wrap;rounded=0;" vertex="1" parent="WIyWlLk6GJQsqaUBKTNV-1">
          <mxGeometry x="190" y="579" width="60" height="30" as="geometry" />
        </mxCell>
        <mxCell id="Tousd2cAixEgL7wH7PzT-67" value="YES" style="text;html=1;strokeColor=none;fillColor=none;align=center;verticalAlign=middle;whiteSpace=wrap;rounded=0;" vertex="1" parent="WIyWlLk6GJQsqaUBKTNV-1">
          <mxGeometry x="190" y="399" width="60" height="30" as="geometry" />
        </mxCell>
        <mxCell id="Tousd2cAixEgL7wH7PzT-69" value="NO" style="text;html=1;strokeColor=none;fillColor=none;align=center;verticalAlign=middle;whiteSpace=wrap;rounded=0;" vertex="1" parent="WIyWlLk6GJQsqaUBKTNV-1">
          <mxGeometry x="130" y="289" width="60" height="30" as="geometry" />
        </mxCell>
        <mxCell id="Tousd2cAixEgL7wH7PzT-70" value="NO" style="text;html=1;strokeColor=none;fillColor=none;align=center;verticalAlign=middle;whiteSpace=wrap;rounded=0;" vertex="1" parent="WIyWlLk6GJQsqaUBKTNV-1">
          <mxGeometry x="300" y="289" width="60" height="30" as="geometry" />
        </mxCell>
        <mxCell id="Tousd2cAixEgL7wH7PzT-71" value="NO" style="text;html=1;strokeColor=none;fillColor=none;align=center;verticalAlign=middle;whiteSpace=wrap;rounded=0;" vertex="1" parent="WIyWlLk6GJQsqaUBKTNV-1">
          <mxGeometry x="300" y="469" width="60" height="30" as="geometry" />
        </mxCell>
      </root>
    </mxGraphModel>
  </diagram>
</mxfile>
